<svg width="1684" height="719" viewBox="0 0 1684 719" fill="none" xmlns="http://www.w3.org/2000/svg">
<path d="M414.84 123C409.286 123 404.784 127.327 404.784 132.665C404.784 138.003 409.286 142.331 414.84 142.331L424.896 142.331L424.896 171.327C424.896 171.46 424.899 171.592 424.904 171.723C399.13 173.766 375.654 183.593 357.023 198.753C356.929 198.655 356.833 198.559 356.734 198.464L335.403 177.961L342.513 171.126C346.44 167.351 346.44 161.231 342.513 157.457C338.586 153.682 332.219 153.682 328.292 157.457L299.849 184.795C295.922 188.569 295.922 194.689 299.849 198.464C303.776 202.238 310.144 202.238 314.071 198.464L321.181 191.629L342.513 212.133C342.612 212.227 342.712 212.32 342.814 212.41C327.041 230.316 316.817 252.882 314.692 277.655C314.555 277.65 314.418 277.647 314.28 277.647L284.112 277.647L284.112 267.982C284.112 262.643 279.61 258.316 274.056 258.316C268.502 258.316 264 262.643 264 267.982L264 306.643C264 311.981 268.502 316.309 274.056 316.309C279.61 316.309 284.112 311.981 284.112 306.643L284.112 296.978L314.28 296.978C314.418 296.978 314.555 296.975 314.692 296.97C316.816 321.746 327.041 344.309 342.814 362.215C342.712 362.306 342.612 362.397 342.513 362.493L321.181 382.996L314.07 376.162C310.143 372.388 303.776 372.388 299.849 376.162C295.922 379.936 295.922 386.056 299.849 389.831L328.292 417.168C332.219 420.944 338.585 420.944 342.513 417.168C346.44 413.394 346.44 407.274 342.513 403.5L335.403 396.665L356.734 376.162C356.834 376.066 356.93 375.97 357.024 375.871C372.748 388.665 391.926 397.661 413.023 401.386C418.485 402.349 423.727 398.876 424.73 393.625C425.734 388.375 422.119 383.338 416.657 382.373C369.854 374.11 334.392 334.682 334.392 287.312C334.392 233.932 379.415 190.658 434.952 190.658C484.235 190.658 525.257 224.743 533.853 269.728C534.857 274.978 540.098 278.452 545.561 277.487C551.023 276.524 554.637 271.485 553.635 266.235C549.759 245.958 540.4 227.525 527.089 212.411C527.108 212.394 527.127 212.377 527.146 212.36C527.229 212.285 527.31 212.21 527.391 212.133L548.722 191.629L555.833 198.464C559.76 202.238 566.127 202.238 570.054 198.464C573.982 194.689 573.982 188.569 570.054 184.795L541.612 157.457C537.685 153.682 531.317 153.682 527.391 157.457C523.464 161.231 523.464 167.351 527.391 171.126L534.501 177.961L513.169 198.464C513.071 198.559 512.974 198.655 512.881 198.753C494.252 183.593 470.775 173.765 445 171.723C445.005 171.592 445.008 171.46 445.008 171.327L445.008 142.331L455.064 142.331C460.618 142.331 465.12 138.003 465.12 132.665C465.12 127.327 460.618 123 455.064 123L414.84 123Z" fill="#960202"/>
<path d="M21.1619 147.357L21.0702 136.065L139.844 135.1C173.86 134.824 200.018 145.625 218.32 167.504C236.622 189.383 245.935 220.397 246.262 260.546L246.516 291.913C246.845 332.341 238.037 363.641 220.093 385.815C202.149 407.988 176.169 419.213 142.154 419.489L23.38 420.454L23.2916 409.58L46.2733 406.884C50.7298 406.29 53.3695 405.153 54.1923 403.474C55.0152 401.794 55.387 396.075 55.3077 386.316L53.5482 169.679C53.469 159.92 53.0043 154.208 52.1543 152.542C51.3043 150.876 48.6465 149.782 44.181 149.261L21.1619 147.357ZM139.117 148.49L89.7669 148.891L91.8592 406.514L141.209 406.113C156.265 405.991 168.649 403.102 178.363 397.446C188.076 391.791 195.248 382.252 199.879 368.831C204.787 355.128 207.145 336.567 206.955 313.146L206.361 239.958C206.173 216.817 203.515 198.575 198.388 185.232C193.539 171.888 186.213 162.467 176.41 156.97C166.604 151.194 154.173 148.368 139.117 148.49ZM702.556 419.12C667.147 419.408 640.006 407.778 621.133 384.23C602.539 360.681 593.08 328.971 592.756 289.101L592.501 257.734C592.288 231.526 596.006 208.631 603.654 189.051C611.581 169.469 623.307 154.177 638.833 143.177C654.358 132.176 673.412 126.584 695.996 126.401C716.907 126.231 734.228 130.273 747.957 138.526C761.685 146.501 771.67 157.155 777.912 170.488C784.153 183.542 786.221 197.885 784.117 213.517L748.222 222.592C751.071 195.801 747.838 175.333 738.522 161.188C729.203 146.764 715.064 139.63 696.105 139.784C674.915 139.956 658.805 147.615 647.775 162.762C637.024 177.906 631.786 202.485 632.062 236.501L632.657 309.689C632.935 343.983 638.991 368.61 650.823 383.571C662.655 398.532 680.142 405.918 703.284 405.73C712.485 405.656 721.255 404.051 729.594 400.916C737.931 397.502 744.996 391.868 750.788 384.014C756.579 376.16 760.116 365.256 761.396 351.305L787.38 357.785C781.428 380.14 770.682 395.981 755.143 405.309C739.881 414.356 722.352 418.959 702.556 419.12Z" fill="#960202"/>
<path d="M1101.15 342.69L1112.44 342.598L1113 411.604L922.715 413.15L922.626 402.276L945.608 399.58C950.064 398.986 952.704 397.849 953.527 396.169C954.35 394.49 954.722 388.771 954.642 379.012L952.883 162.375C952.804 152.616 952.339 146.904 951.489 145.238C950.639 143.572 947.981 142.478 943.516 141.957L920.496 140.052L920.405 128.761L1021.2 127.942L1021.29 139.234L998.302 141.512C993.846 142.106 991.206 143.242 990.383 144.922C989.56 146.602 989.189 152.321 989.268 162.079L991.194 399.21L1066.89 398.595C1073.58 398.54 1078.32 398.362 1081.11 398.061C1083.89 397.481 1085.7 396.49 1086.52 395.089C1087.62 393.407 1088.58 390.89 1089.39 387.538L1101.15 342.69ZM1196.41 400.052L1196.5 410.926L1117.04 411.571L1116.95 400.698L1139.51 398.005C1142.58 397.701 1144.81 397.265 1146.2 396.696C1147.58 395.848 1148.82 394.165 1149.92 391.647C1151.29 388.847 1152.92 384.094 1154.82 377.386L1233.5 126.218L1259.85 126.004L1343.44 375.855C1345.45 382.53 1347.02 387.258 1348.15 390.037C1349.57 392.535 1350.98 394.196 1352.38 395.021C1353.78 395.568 1355.87 395.969 1358.66 396.225L1381.68 398.548L1381.77 409.421L1280.14 410.247L1280.06 399.373L1303.04 396.677C1307.49 396.083 1309.86 394.948 1310.12 393.273C1310.66 391.317 1309.36 385.612 1306.22 376.157L1288.64 322.764L1186.59 323.593L1169.88 377.264C1166.89 386.769 1165.54 392.496 1165.84 394.445C1166.41 396.114 1168.92 397.208 1173.39 397.73L1196.41 400.052ZM1190.66 310.176L1284.34 309.415L1236.32 164.255L1190.66 310.176ZM1398.34 136.172L1398.25 124.88L1512.01 123.956C1539.33 123.734 1559.88 129.98 1573.64 142.694C1587.41 155.13 1594.37 171.246 1594.53 191.041L1594.62 202.333C1594.74 216.832 1590.52 229.274 1581.96 239.66C1573.4 250.046 1561.33 257.394 1545.75 261.703C1565.29 264.89 1580.55 272.155 1591.52 283.498C1602.48 294.841 1608.04 309.156 1608.18 326.443L1608.27 337.734C1608.43 358.088 1601.46 374.874 1587.35 388.094C1573.51 401.311 1552.65 408.033 1524.77 408.26L1400.56 409.269L1400.47 398.395L1423.46 395.699C1427.91 395.105 1430.55 393.968 1431.37 392.289C1432.2 390.609 1432.57 384.89 1432.49 375.131L1430.73 158.494C1430.65 148.735 1430.19 143.023 1429.34 141.357C1428.49 139.691 1425.83 138.597 1421.36 138.076L1398.34 136.172ZM1512.12 137.339L1466.95 137.706L1467.92 257.316L1513.09 256.949C1542.09 256.714 1556.45 239.728 1556.17 205.992L1556.03 188.845C1555.75 154.272 1541.11 137.103 1512.12 137.339ZM1523.65 270.248L1468.03 270.699L1469.04 395.329L1524.66 394.877C1555.06 394.63 1570.1 376.523 1569.81 340.556L1569.67 323.409C1569.53 306.123 1565.52 292.911 1557.64 283.774C1550.04 274.634 1538.71 270.125 1523.65 270.248Z" fill="#050296"/>
<path d="M173.732 548.237C171.885 548.252 170.954 547.336 170.939 545.489L170.436 483.645C170.421 481.797 171.337 480.866 173.185 480.851L197.65 480.653C203.61 480.604 208.118 482.101 211.175 485.143C214.267 488.186 215.837 492.686 215.886 498.646L215.911 501.783C215.959 507.707 214.462 512.216 211.42 515.308C208.413 518.399 203.93 519.969 197.97 520.017L176.223 520.194L176.428 545.444C176.443 547.291 175.544 548.222 173.732 548.237ZM176.178 514.705L197.926 514.528C202.317 514.493 205.498 513.474 207.468 511.471C209.473 509.433 210.458 506.218 210.422 501.827L210.397 498.691C210.361 494.264 209.324 491.066 207.286 489.096C205.283 487.091 202.086 486.106 197.695 486.142L175.948 486.318L176.178 514.705Z" fill="black"/>
<path d="M303.009 546.926C301.33 546.207 300.815 544.992 301.464 543.278L326.895 481.746C327.441 480.313 328.463 479.59 329.962 479.578L330.276 479.575C331.705 479.599 332.721 480.305 333.325 481.694L359.753 542.805C360.464 544.507 359.986 545.731 358.319 546.476C356.617 547.187 355.428 546.709 354.752 545.041L347.665 528.63L313.424 528.909L306.605 545.432C305.921 547.111 304.723 547.609 303.009 546.926ZM315.627 523.401L345.321 523.16L330.189 488.255L315.627 523.401ZM471.156 545.874C470.319 545.88 469.638 545.642 469.111 545.158C468.619 544.674 468.37 544.014 468.363 543.178L467.881 483.895L445.663 484.076C444.827 484.082 444.145 483.844 443.619 483.36C443.127 482.876 442.877 482.216 442.871 481.38C442.864 480.543 443.102 479.879 443.586 479.387C444.105 478.86 444.782 478.593 445.619 478.586L495.596 478.18C496.432 478.174 497.097 478.43 497.589 478.949C498.081 479.432 498.33 480.093 498.337 480.929C498.344 481.766 498.105 482.43 497.621 482.922C497.137 483.413 496.477 483.663 495.641 483.67L473.37 483.85L473.852 543.133C473.858 543.935 473.602 544.599 473.084 545.126C472.6 545.618 471.957 545.867 471.156 545.874ZM618.294 544.626C617.457 544.633 616.776 544.395 616.249 543.911C615.757 543.392 615.508 542.715 615.501 541.878L614.998 480.034C614.992 479.197 615.23 478.533 615.714 478.041C616.233 477.514 616.91 477.247 617.747 477.241C618.583 477.234 619.247 477.49 619.74 478.009C620.231 478.493 620.481 479.153 620.488 479.989L620.713 507.696L664.573 507.34L664.348 479.633C664.341 478.797 664.58 478.132 665.064 477.641C665.548 477.114 666.208 476.847 667.044 476.84C667.881 476.834 668.545 477.09 669.037 477.608C669.564 478.092 669.831 478.752 669.837 479.589L670.34 541.433C670.346 542.269 670.091 542.951 669.572 543.478C669.088 543.97 668.428 544.219 667.592 544.226C666.755 544.233 666.091 543.994 665.599 543.51C665.107 542.991 664.857 542.314 664.851 541.477L664.618 512.829L620.757 513.185L620.99 541.833C620.997 542.67 620.758 543.352 620.275 543.878C619.791 544.37 619.13 544.619 618.294 544.626ZM815.309 543.026C807.746 543.088 802.208 541.39 798.694 537.933C795.181 534.476 793.393 528.966 793.332 521.404L793.138 497.565C793.076 489.933 794.774 484.377 798.231 480.898C801.688 477.385 807.163 475.633 814.657 475.641L827.308 475.539C834.871 475.477 840.391 477.175 843.87 480.632C847.383 484.089 849.171 489.599 849.232 497.162L849.426 520.948C849.487 528.511 847.789 534.049 844.332 537.562C840.91 541.076 835.418 542.863 827.855 542.924L815.309 543.026ZM815.264 537.537L827.811 537.435C831.819 537.403 835.003 536.854 837.365 535.789C839.726 534.724 841.42 533.003 842.446 530.624C843.473 528.246 843.969 525.035 843.936 520.993L843.743 497.206C843.711 493.198 843.162 490.014 842.097 487.652C841.032 485.291 839.311 483.597 836.932 482.571C834.554 481.51 831.36 480.995 827.352 481.028L814.701 481.131C810.693 481.128 807.508 481.66 805.147 482.724C802.82 483.754 801.144 485.475 800.118 487.889C799.091 490.267 798.595 493.478 798.627 497.52L798.821 521.359C798.854 525.402 799.403 528.604 800.467 530.965C801.532 533.327 803.254 535.021 805.632 536.047C808.011 537.073 811.221 537.57 815.264 537.537ZM975.455 541.726C973.608 541.741 972.677 540.824 972.662 538.977L972.159 477.133C972.144 475.286 973.06 474.355 974.907 474.34C976.72 474.325 977.633 475.241 977.648 477.089L978.129 536.214L1009.91 535.956C1011.76 535.941 1012.69 536.84 1012.71 538.652C1012.72 540.499 1011.8 541.43 1009.96 541.445L975.455 541.726ZM1150.31 540.305C1142.75 540.367 1137.21 538.669 1133.7 535.212C1130.18 531.755 1128.4 526.246 1128.34 518.683L1128.14 494.844C1128.08 487.212 1129.78 481.656 1133.24 478.178C1136.69 474.664 1142.17 472.912 1149.66 472.921L1162.31 472.818C1169.87 472.756 1175.4 474.454 1178.87 477.911C1182.39 481.368 1184.18 486.878 1184.24 494.441L1184.43 518.227C1184.49 525.79 1182.79 531.328 1179.34 534.842C1175.91 538.355 1170.42 540.142 1162.86 540.203L1150.31 540.305ZM1150.27 534.816L1162.81 534.714C1166.82 534.682 1170.01 534.133 1172.37 533.068C1174.73 532.004 1176.42 530.282 1177.45 527.904C1178.48 525.525 1178.97 522.315 1178.94 518.272L1178.75 494.486C1178.71 490.478 1178.17 487.293 1177.1 484.931C1176.04 482.57 1174.31 480.876 1171.94 479.85C1169.56 478.789 1166.36 478.274 1162.36 478.307L1149.71 478.41C1145.7 478.407 1142.51 478.939 1140.15 480.004C1137.82 481.033 1136.15 482.755 1135.12 485.168C1134.1 487.546 1133.6 490.757 1133.63 494.8L1133.83 518.638C1133.86 522.681 1134.41 525.883 1135.47 528.244C1136.54 530.606 1138.26 532.3 1140.64 533.326C1143.01 534.352 1146.23 534.849 1150.27 534.816ZM1301.84 539.075C1294.27 539.136 1288.73 537.438 1285.22 533.982C1281.71 530.525 1279.92 525.015 1279.86 517.452L1279.67 493.666C1279.6 486.033 1281.28 480.478 1284.71 477C1288.16 473.521 1293.66 471.751 1301.18 471.69L1313.83 471.587C1320.25 471.535 1325.03 472.838 1328.19 475.496C1331.35 478.12 1333.11 482.375 1333.47 488.262C1333.58 489.202 1333.4 489.918 1332.91 490.41C1332.46 490.902 1331.79 491.151 1330.88 491.159C1329.14 491.173 1328.17 490.257 1327.98 488.411C1327.7 484.092 1326.49 481.122 1324.36 479.501C1322.22 477.845 1318.72 477.037 1313.88 477.076L1301.23 477.179C1297.22 477.212 1294.04 477.76 1291.67 478.825C1289.31 479.855 1287.62 481.577 1286.59 483.99C1285.6 486.368 1285.12 489.579 1285.15 493.621L1285.35 517.408C1285.38 521.45 1285.93 524.652 1286.99 527.014C1288.06 529.375 1289.78 531.069 1292.16 532.095C1294.54 533.122 1297.75 533.618 1301.79 533.586L1314.34 533.484C1317.89 533.455 1320.69 532.996 1322.74 532.108C1324.83 531.22 1326.3 529.744 1327.15 527.681C1328.01 525.618 1328.42 522.774 1328.39 519.149L1328.34 512.615L1316.89 512.603C1315.07 512.618 1314.16 511.701 1314.15 509.854C1314.13 508.042 1315.03 507.129 1316.84 507.114L1331.06 507.103C1332.87 507.088 1333.79 507.987 1333.8 509.799L1333.88 519.105C1333.93 526.005 1332.42 531.036 1329.35 534.198C1326.27 537.325 1321.28 538.917 1314.38 538.973L1301.84 539.075ZM1448.05 537.887C1446.24 537.902 1445.32 536.986 1445.31 535.139L1445.12 511.875L1421.4 475.053C1420.45 473.562 1420.73 472.288 1422.26 471.23C1423.82 470.241 1425.09 470.527 1426.08 472.087L1447.79 505.946L1469.31 471.684C1469.8 470.948 1470.35 470.508 1470.98 470.363C1471.6 470.219 1472.3 470.387 1473.07 470.869C1474.65 471.797 1474.94 473.05 1473.94 474.626L1450.61 511.831L1450.8 535.094C1450.81 536.941 1449.9 537.872 1448.05 537.887Z" fill="#252323"/>
<path d="M21.1619 147.357L19.7964 147.368L19.8065 148.615L21.0493 148.718L21.1619 147.357ZM21.0702 136.065L21.0591 134.699L19.6936 134.71L19.7047 136.076L21.0702 136.065ZM218.32 167.504L219.367 166.628L219.367 166.628L218.32 167.504ZM220.093 385.815L221.154 386.674L221.154 386.674L220.093 385.815ZM23.38 420.454L22.0144 420.465L22.0255 421.83L23.391 421.819L23.38 420.454ZM23.2916 409.58L23.1325 408.224L21.9162 408.366L21.9261 409.591L23.2916 409.58ZM46.2733 406.884L46.4324 408.24L46.4431 408.239L46.4537 408.238L46.2733 406.884ZM54.1923 403.474L55.4186 404.074L55.4186 404.074L54.1923 403.474ZM52.1543 152.542L53.3707 151.922L53.3707 151.921L52.1543 152.542ZM44.181 149.261L44.3393 147.905L44.3165 147.902L44.2936 147.9L44.181 149.261ZM89.7669 148.891L89.7558 147.525L88.3902 147.536L88.4013 148.902L89.7669 148.891ZM91.8592 406.514L90.4937 406.525L90.5048 407.89L91.8703 407.879L91.8592 406.514ZM178.363 397.446L179.05 398.626L179.05 398.626L178.363 397.446ZM199.879 368.831L198.593 368.37L198.591 368.378L198.588 368.385L199.879 368.831ZM198.388 185.232L197.104 185.699L197.109 185.711L197.113 185.722L198.388 185.232ZM176.41 156.97L175.717 158.147L175.729 158.154L175.742 158.161L176.41 156.97ZM22.5275 147.346L22.4358 136.054L19.7047 136.076L19.7964 147.368L22.5275 147.346ZM21.0813 137.43L139.856 136.466L139.833 133.735L21.0591 134.699L21.0813 137.43ZM139.856 136.466C173.55 136.192 199.284 146.876 217.272 168.38L219.367 166.628C200.752 144.375 174.17 133.456 139.833 133.735L139.856 136.466ZM217.272 168.38C235.302 189.934 244.571 220.598 244.896 260.557L247.627 260.535C247.299 220.197 237.941 188.832 219.367 166.628L217.272 168.38ZM244.896 260.557L245.151 291.924L247.882 291.902L247.627 260.535L244.896 260.557ZM245.151 291.924C245.478 332.165 236.707 363.113 219.031 384.956L221.154 386.674C239.366 364.169 248.212 332.516 247.882 291.902L245.151 291.924ZM219.031 384.956C201.394 406.75 175.837 417.85 142.143 418.124L142.165 420.855C176.502 420.576 202.903 409.226 221.154 386.674L219.031 384.956ZM142.143 418.124L23.3689 419.088L23.391 421.819L142.165 420.855L142.143 418.124ZM24.7455 420.443L24.6572 409.569L21.9261 409.591L22.0144 420.465L24.7455 420.443ZM23.4508 410.936L46.4324 408.24L46.1142 405.528L23.1325 408.224L23.4508 410.936ZM46.4537 408.238C48.7445 407.932 50.6553 407.478 52.1355 406.84C53.601 406.209 54.8042 405.329 55.4186 404.074L52.966 402.873C52.7576 403.298 52.2295 403.826 51.0553 404.332C49.8959 404.831 48.2586 405.242 46.0929 405.53L46.4537 408.238ZM55.4186 404.074C55.7171 403.465 55.9192 402.627 56.073 401.674C56.2318 400.69 56.3565 399.466 56.451 398.013C56.64 395.105 56.713 391.198 56.6732 386.305L53.9422 386.328C53.9817 391.193 53.9084 395.025 53.7256 397.836C53.6342 399.243 53.5166 400.373 53.3768 401.239C53.2319 402.136 53.0789 402.642 52.966 402.873L55.4186 404.074ZM56.6732 386.305L54.9138 169.668L52.1827 169.69L53.9422 386.328L56.6732 386.305ZM54.9138 169.668C54.874 164.775 54.7376 160.869 54.5014 157.965C54.3833 156.514 54.2388 155.292 54.064 154.311C53.8947 153.361 53.6791 152.526 53.3707 151.922L50.9379 153.163C51.0546 153.391 51.2158 153.895 51.3752 154.79C51.529 155.654 51.665 156.782 51.7792 158.187C52.0076 160.995 52.1432 164.824 52.1827 169.69L54.9138 169.668ZM53.3707 151.921C52.736 150.677 51.5186 149.817 50.0431 149.209C48.5528 148.596 46.6348 148.173 44.3393 147.905L44.0226 150.617C46.1927 150.871 47.8364 151.255 49.0038 151.735C50.1861 152.222 50.7226 152.741 50.9379 153.163L53.3707 151.921ZM44.2936 147.9L21.2745 145.996L21.0493 148.718L44.0684 150.622L44.2936 147.9ZM139.106 147.124L89.7558 147.525L89.778 150.256L139.128 149.855L139.106 147.124ZM88.4013 148.902L90.4937 406.525L93.2247 406.503L91.1324 148.88L88.4013 148.902ZM91.8703 407.879L141.22 407.478L141.198 404.747L91.8481 405.148L91.8703 407.879ZM141.22 407.478C156.436 407.355 169.073 404.435 179.05 398.626L177.676 396.266C168.226 401.768 156.094 404.626 141.198 404.747L141.22 407.478ZM179.05 398.626C189.114 392.766 196.461 382.923 201.17 369.276L198.588 368.385C194.035 381.581 187.038 390.815 177.676 396.266L179.05 398.626ZM201.165 369.291C206.149 355.373 208.512 336.631 208.321 313.135L205.59 313.157C205.779 336.503 203.424 354.883 198.593 368.37L201.165 369.291ZM208.321 313.135L207.726 239.947L204.995 239.969L205.59 313.157L208.321 313.135ZM207.726 239.947C207.538 216.73 204.874 198.303 199.663 184.743L197.113 185.722C202.157 198.846 204.808 216.903 204.995 239.969L207.726 239.947ZM199.671 184.766C194.741 171.197 187.235 161.475 177.077 155.779L175.742 158.161C185.191 163.46 192.337 172.578 197.104 185.699L199.671 184.766ZM177.103 155.794C167.025 149.858 154.331 147.001 139.106 147.124L139.128 149.855C154.014 149.734 166.182 152.531 175.717 158.147L177.103 155.794ZM621.133 384.23L620.061 385.077L620.067 385.084L621.133 384.23ZM603.654 189.051L602.388 188.539L602.385 188.547L602.382 188.554L603.654 189.051ZM638.833 143.177L639.622 144.291L639.622 144.291L638.833 143.177ZM747.957 138.526L747.254 139.696L747.263 139.702L747.271 139.707L747.957 138.526ZM777.912 170.488L776.676 171.067L776.68 171.077L777.912 170.488ZM784.117 213.517L784.452 214.841L785.348 214.614L785.471 213.699L784.117 213.517ZM748.222 222.592L746.864 222.447L746.657 224.396L748.557 223.915L748.222 222.592ZM738.522 161.188L737.375 161.929L737.381 161.939L738.522 161.188ZM647.775 162.762L646.671 161.958L646.666 161.964L646.661 161.971L647.775 162.762ZM650.823 383.571L649.752 384.418L649.752 384.418L650.823 383.571ZM729.594 400.916L730.075 402.194L730.093 402.187L730.112 402.18L729.594 400.916ZM750.788 384.014L749.689 383.203L749.689 383.203L750.788 384.014ZM761.396 351.305L761.727 349.98L760.182 349.594L760.036 351.18L761.396 351.305ZM787.38 357.785L788.7 358.137L789.057 356.796L787.711 356.46L787.38 357.785ZM755.143 405.309L755.839 406.484L755.846 406.48L755.143 405.309ZM702.545 417.755C667.473 418.039 640.763 406.539 622.198 383.376L620.067 385.084C639.249 409.017 666.821 420.776 702.567 420.486L702.545 417.755ZM622.205 383.384C603.852 360.14 594.444 328.756 594.121 289.09L591.39 289.112C591.716 329.186 601.225 361.221 620.061 385.077L622.205 383.384ZM594.121 289.09L593.867 257.723L591.136 257.745L591.39 289.112L594.121 289.09ZM593.867 257.723C593.655 231.647 597.355 208.932 604.926 189.548L602.382 188.554C594.657 208.331 590.922 231.405 591.136 257.745L593.867 257.723ZM604.92 189.564C612.76 170.195 624.333 155.124 639.622 144.291L638.043 142.062C622.282 153.23 610.402 168.742 602.388 188.539L604.92 189.564ZM639.622 144.291C654.88 133.48 673.649 127.948 696.007 127.766L695.985 125.035C673.176 125.22 653.836 130.872 638.043 142.062L639.622 144.291ZM696.007 127.766C716.742 127.598 733.796 131.607 747.254 139.696L748.661 137.356C734.659 128.939 717.073 124.864 695.985 125.035L696.007 127.766ZM747.271 139.707C760.778 147.553 770.56 158.006 776.676 171.067L779.149 169.909C772.779 156.304 762.592 145.448 748.643 137.345L747.271 139.707ZM776.68 171.077C782.796 183.87 784.836 197.942 782.764 213.335L785.471 213.699C787.607 197.829 785.51 183.215 779.144 169.899L776.68 171.077ZM783.783 212.193L747.887 221.268L748.557 223.915L784.452 214.841L783.783 212.193ZM749.58 222.736C752.444 195.805 749.229 174.963 739.662 160.437L737.381 161.939C746.447 175.703 749.699 195.796 746.864 222.447L749.58 222.736ZM739.669 160.447C730.067 145.584 715.463 138.261 696.094 138.418L696.116 141.149C714.666 140.999 728.34 147.944 737.375 161.929L739.669 160.447ZM696.094 138.418C674.536 138.593 657.992 146.412 646.671 161.958L648.879 163.565C659.618 148.818 675.294 141.318 696.116 141.149L696.094 138.418ZM646.661 161.971C635.654 177.475 630.42 202.417 630.697 236.512L633.428 236.489C633.152 202.554 638.393 178.336 648.888 163.552L646.661 161.971ZM630.697 236.512L631.291 309.7L634.022 309.678L633.428 236.489L630.697 236.512ZM631.291 309.7C631.57 344.084 637.631 369.093 649.752 384.418L651.894 382.724C640.35 368.127 634.3 343.882 634.022 309.678L631.291 309.7ZM649.752 384.418C661.902 399.781 679.832 407.286 703.295 407.096L703.273 404.365C680.453 404.55 663.409 397.283 651.894 382.724L649.752 384.418ZM703.295 407.096C712.651 407.02 721.58 405.387 730.075 402.194L729.114 399.638C720.929 402.714 712.319 404.291 703.273 404.365L703.295 407.096ZM730.112 402.18C738.7 398.663 745.959 392.863 751.887 384.824L749.689 383.203C744.033 390.874 737.163 396.341 729.077 399.652L730.112 402.18ZM751.887 384.824C757.877 376.701 761.462 365.527 762.756 351.429L760.036 351.18C758.769 364.986 755.281 375.619 749.689 383.203L751.887 384.824ZM761.066 352.629L787.05 359.11L787.711 356.46L761.727 349.98L761.066 352.629ZM786.061 357.434C780.173 379.545 769.597 395.04 754.44 404.138L755.846 406.48C771.767 396.923 782.682 380.736 788.7 358.137L786.061 357.434ZM754.447 404.134C739.415 413.044 722.128 417.596 702.545 417.755L702.567 420.486C722.576 420.323 740.346 415.667 755.839 406.484L754.447 404.134ZM1101.15 342.69L1101.14 341.324L1100.1 341.333L1099.83 342.343L1101.15 342.69ZM1112.44 342.598L1113.81 342.587L1113.8 341.221L1112.43 341.232L1112.44 342.598ZM1113 411.604L1113.02 412.97L1114.38 412.959L1114.37 411.593L1113 411.604ZM922.715 413.15L921.349 413.161L921.36 414.526L922.726 414.515L922.715 413.15ZM922.626 402.276L922.467 400.92L921.251 401.062L921.261 402.287L922.626 402.276ZM945.608 399.58L945.767 400.936L945.778 400.935L945.788 400.933L945.608 399.58ZM953.527 396.169L954.753 396.77L954.753 396.77L953.527 396.169ZM951.489 145.238L952.705 144.617L952.705 144.617L951.489 145.238ZM943.516 141.957L943.674 140.6L943.651 140.598L943.628 140.596L943.516 141.957ZM920.496 140.052L919.131 140.064L919.141 141.311L920.384 141.413L920.496 140.052ZM920.405 128.761L920.394 127.395L919.028 127.406L919.039 128.772L920.405 128.761ZM1021.2 127.942L1022.56 127.931L1022.55 126.565L1021.18 126.576L1021.2 127.942ZM1021.29 139.234L1021.42 140.593L1022.66 140.47L1022.65 139.223L1021.29 139.234ZM998.302 141.512L998.168 140.153L998.145 140.155L998.122 140.158L998.302 141.512ZM990.383 144.922L989.157 144.321L989.157 144.321L990.383 144.922ZM991.194 399.21L989.828 399.221L989.839 400.586L991.205 400.575L991.194 399.21ZM1081.11 398.061L1081.25 399.419L1081.32 399.411L1081.39 399.398L1081.11 398.061ZM1086.52 395.089L1085.38 394.341L1085.36 394.368L1085.34 394.396L1086.52 395.089ZM1089.39 387.538L1088.07 387.191L1088.06 387.204L1088.06 387.217L1089.39 387.538ZM1101.16 344.055L1112.45 343.963L1112.43 341.232L1101.14 341.324L1101.16 344.055ZM1111.08 342.609L1111.64 411.615L1114.37 411.593L1113.81 342.587L1111.08 342.609ZM1112.99 410.239L922.703 411.784L922.726 414.515L1113.02 412.97L1112.99 410.239ZM924.08 413.138L923.992 402.265L921.261 402.287L921.349 413.161L924.08 413.138ZM922.785 403.632L945.767 400.936L945.449 398.223L922.467 400.92L922.785 403.632ZM945.788 400.933C948.079 400.628 949.99 400.173 951.47 399.536C952.936 398.905 954.139 398.024 954.753 396.77L952.301 395.569C952.092 395.994 951.564 396.522 950.39 397.028C949.23 397.527 947.593 397.938 945.427 398.226L945.788 400.933ZM954.753 396.77C955.052 396.161 955.254 395.323 955.408 394.37C955.566 393.386 955.691 392.162 955.786 390.709C955.975 387.801 956.048 383.894 956.008 379.001L953.277 379.023C953.316 383.889 953.243 387.721 953.06 390.532C952.969 391.938 952.851 393.069 952.711 393.935C952.566 394.832 952.413 395.338 952.301 395.569L954.753 396.77ZM956.008 379.001L954.248 162.364L951.517 162.386L953.277 379.023L956.008 379.001ZM954.248 162.364C954.209 157.471 954.072 153.565 953.836 150.661C953.718 149.21 953.573 147.988 953.399 147.007C953.229 146.057 953.014 145.222 952.705 144.617L950.272 145.859C950.389 146.087 950.55 146.591 950.71 147.486C950.864 148.349 951 149.478 951.114 150.882C951.342 153.69 951.478 157.52 951.517 162.386L954.248 162.364ZM952.705 144.617C952.071 143.373 950.853 142.512 949.378 141.905C947.887 141.292 945.969 140.868 943.674 140.6L943.357 143.313C945.527 143.566 947.171 143.951 948.338 144.431C949.521 144.917 950.057 145.437 950.272 145.859L952.705 144.617ZM943.628 140.596L920.609 138.692L920.384 141.413L943.403 143.318L943.628 140.596ZM921.862 140.041L921.77 128.749L919.039 128.772L919.131 140.064L921.862 140.041ZM920.416 130.126L1021.21 129.307L1021.18 126.576L920.394 127.395L920.416 130.126ZM1019.83 127.953L1019.92 139.245L1022.65 139.223L1022.56 127.931L1019.83 127.953ZM1021.15 137.875L998.168 140.153L998.437 142.871L1021.42 140.593L1021.15 137.875ZM998.122 140.158C995.831 140.463 993.92 140.918 992.44 141.556C990.975 142.187 989.771 143.067 989.157 144.321L991.61 145.523C991.818 145.097 992.346 144.57 993.52 144.064C994.68 143.565 996.317 143.154 998.483 142.865L998.122 140.158ZM989.157 144.321C988.858 144.931 988.656 145.769 988.503 146.722C988.344 147.705 988.219 148.93 988.125 150.383C987.936 153.29 987.863 157.197 987.902 162.09L990.633 162.068C990.594 157.203 990.667 153.371 990.85 150.56C990.941 149.153 991.059 148.023 991.199 147.157C991.344 146.26 991.497 145.753 991.61 145.523L989.157 144.321ZM987.902 162.09L989.828 399.221L992.559 399.198L990.633 162.068L987.902 162.09ZM991.205 400.575L1066.9 399.96L1066.88 397.229L991.183 397.844L991.205 400.575ZM1066.9 399.96C1073.59 399.906 1078.39 399.728 1081.25 399.419L1080.96 396.703C1078.25 396.997 1073.57 397.175 1066.88 397.229L1066.9 399.96ZM1081.39 399.398C1084.28 398.794 1086.57 397.692 1087.7 395.782L1085.34 394.396C1084.82 395.288 1083.5 396.167 1080.83 396.724L1081.39 399.398ZM1087.66 395.838C1088.89 393.964 1089.89 391.27 1090.71 387.858L1088.06 387.217C1087.26 390.51 1086.35 392.851 1085.38 394.341L1087.66 395.838ZM1090.71 387.884L1102.47 343.036L1099.83 342.343L1088.07 387.191L1090.71 387.884ZM1196.41 400.052L1197.78 400.041L1197.77 398.817L1196.55 398.694L1196.41 400.052ZM1196.5 410.926L1196.51 412.292L1197.88 412.28L1197.87 410.915L1196.5 410.926ZM1117.04 411.571L1115.67 411.582L1115.68 412.948L1117.05 412.937L1117.04 411.571ZM1116.95 400.698L1116.79 399.342L1115.58 399.487L1115.59 400.709L1116.95 400.698ZM1139.51 398.005L1139.38 396.646L1139.37 396.647L1139.35 396.649L1139.51 398.005ZM1146.2 396.696L1146.71 397.96L1146.81 397.918L1146.91 397.861L1146.2 396.696ZM1149.92 391.647L1148.69 391.046L1148.68 391.074L1148.67 391.102L1149.92 391.647ZM1154.82 377.386L1153.52 376.978L1153.51 376.996L1153.51 377.015L1154.82 377.386ZM1233.5 126.218L1233.49 124.852L1232.5 124.86L1232.2 125.809L1233.5 126.218ZM1259.85 126.004L1261.15 125.57L1260.83 124.63L1259.84 124.638L1259.85 126.004ZM1343.44 375.855L1344.75 375.462L1344.74 375.441L1344.73 375.421L1343.44 375.855ZM1348.15 390.037L1346.89 390.554L1346.92 390.634L1346.97 390.71L1348.15 390.037ZM1352.38 395.021L1351.68 396.198L1351.78 396.254L1351.88 396.293L1352.38 395.021ZM1358.66 396.225L1358.8 394.866L1358.79 394.865L1358.66 396.225ZM1381.68 398.548L1383.05 398.536L1383.04 397.312L1381.82 397.189L1381.68 398.548ZM1381.77 409.421L1381.78 410.787L1383.15 410.776L1383.14 409.41L1381.77 409.421ZM1280.14 410.247L1278.78 410.258L1278.79 411.623L1280.16 411.612L1280.14 410.247ZM1280.06 399.373L1279.9 398.017L1278.68 398.159L1278.69 399.384L1280.06 399.373ZM1303.04 396.677L1303.2 398.033L1303.21 398.032L1303.22 398.03L1303.04 396.677ZM1310.12 393.273L1308.8 392.909L1308.78 392.983L1308.77 393.06L1310.12 393.273ZM1306.22 376.157L1304.92 376.584L1304.92 376.588L1306.22 376.157ZM1288.64 322.764L1289.93 322.337L1289.62 321.39L1288.62 321.399L1288.64 322.764ZM1186.59 323.593L1186.58 322.227L1185.58 322.235L1185.29 323.187L1186.59 323.593ZM1169.88 377.264L1171.18 377.674L1171.18 377.67L1169.88 377.264ZM1165.84 394.445L1164.48 394.649L1164.5 394.771L1164.54 394.887L1165.84 394.445ZM1173.39 397.73L1173.23 399.086L1173.24 399.087L1173.25 399.088L1173.39 397.73ZM1190.66 310.176L1189.36 309.768L1188.8 311.557L1190.67 311.541L1190.66 310.176ZM1284.34 309.415L1284.36 310.781L1286.23 310.765L1285.64 308.986L1284.34 309.415ZM1236.32 164.255L1237.62 163.826L1236.29 159.798L1235.02 163.847L1236.32 164.255ZM1195.05 400.063L1195.14 410.937L1197.87 410.915L1197.78 400.041L1195.05 400.063ZM1196.49 409.56L1117.03 410.206L1117.05 412.937L1196.51 412.292L1196.49 409.56ZM1118.4 411.56L1118.32 400.687L1115.59 400.709L1115.67 411.582L1118.4 411.56ZM1117.11 402.054L1139.68 399.361L1139.35 396.649L1116.79 399.342L1117.11 402.054ZM1139.65 399.364C1142.74 399.058 1145.13 398.608 1146.71 397.96L1145.68 395.432C1144.48 395.922 1142.42 396.345 1139.38 396.646L1139.65 399.364ZM1146.91 397.861C1148.65 396.797 1150.03 394.808 1151.17 392.191L1148.67 391.102C1147.61 393.522 1146.52 394.899 1145.48 395.531L1146.91 397.861ZM1151.15 392.247C1152.58 389.329 1154.24 384.472 1156.14 377.758L1153.51 377.015C1151.61 383.715 1150.01 388.366 1148.69 391.046L1151.15 392.247ZM1156.13 377.795L1234.81 126.626L1232.2 125.809L1153.52 376.978L1156.13 377.795ZM1233.52 127.583L1259.86 127.369L1259.84 124.638L1233.49 124.852L1233.52 127.583ZM1258.56 126.437L1342.14 376.288L1344.73 375.421L1261.15 125.57L1258.56 126.437ZM1342.13 376.248C1344.14 382.925 1345.73 387.708 1346.89 390.554L1349.42 389.519C1348.31 386.807 1346.75 382.135 1344.75 375.462L1342.13 376.248ZM1346.97 390.71C1348.42 393.278 1349.97 395.19 1351.68 396.198L1353.07 393.845C1351.98 393.202 1350.72 391.791 1349.34 389.364L1346.97 390.71ZM1351.88 396.293C1353.46 396.91 1355.71 397.325 1358.54 397.585L1358.79 394.865C1356.03 394.612 1354.09 394.225 1352.87 393.749L1351.88 396.293ZM1358.52 397.584L1381.55 399.906L1381.82 397.189L1358.8 394.866L1358.52 397.584ZM1380.32 398.559L1380.41 409.432L1383.14 409.41L1383.05 398.536L1380.32 398.559ZM1381.76 408.056L1280.13 408.881L1280.16 411.612L1381.78 410.787L1381.76 408.056ZM1281.51 410.236L1281.42 399.362L1278.69 399.384L1278.78 410.258L1281.51 410.236ZM1280.22 400.729L1303.2 398.033L1302.88 395.321L1279.9 398.017L1280.22 400.729ZM1303.22 398.03C1305.5 397.726 1307.37 397.27 1308.74 396.611C1310.1 395.96 1311.23 394.97 1311.47 393.487L1308.77 393.06C1308.74 393.252 1308.56 393.667 1307.56 394.15C1306.57 394.626 1305.03 395.034 1302.86 395.323L1303.22 398.03ZM1311.44 393.638C1311.64 392.899 1311.64 391.971 1311.54 390.968C1311.44 389.933 1311.21 388.68 1310.88 387.223C1310.22 384.308 1309.09 380.471 1307.51 375.726L1304.92 376.588C1306.49 381.298 1307.58 385.04 1308.22 387.831C1308.54 389.227 1308.74 390.358 1308.82 391.238C1308.91 392.151 1308.87 392.669 1308.8 392.909L1311.44 393.638ZM1307.51 375.73L1289.93 322.337L1287.34 323.191L1304.92 376.584L1307.51 375.73ZM1288.62 321.399L1186.58 322.227L1186.6 324.958L1288.65 324.13L1288.62 321.399ZM1185.29 323.187L1168.57 376.858L1171.18 377.67L1187.89 323.999L1185.29 323.187ZM1168.58 376.854C1167.08 381.62 1165.98 385.464 1165.3 388.375C1164.95 389.83 1164.71 391.071 1164.57 392.089C1164.43 393.079 1164.38 393.961 1164.48 394.649L1167.19 394.241C1167.14 393.954 1167.15 393.39 1167.28 392.46C1167.4 391.559 1167.62 390.409 1167.95 389.001C1168.62 386.184 1169.69 382.413 1171.18 377.674L1168.58 376.854ZM1164.54 394.887C1165.01 396.245 1166.19 397.154 1167.61 397.77C1169.04 398.394 1170.94 398.818 1173.23 399.086L1173.55 396.373C1171.38 396.12 1169.78 395.736 1168.7 395.265C1167.6 394.787 1167.23 394.313 1167.13 394.003L1164.54 394.887ZM1173.25 399.088L1196.28 401.411L1196.55 398.694L1173.53 396.371L1173.25 399.088ZM1190.67 311.541L1284.36 310.781L1284.33 308.05L1190.65 308.81L1190.67 311.541ZM1285.64 308.986L1237.62 163.826L1235.03 164.684L1283.05 309.844L1285.64 308.986ZM1235.02 163.847L1189.36 309.768L1191.97 310.584L1237.63 164.663L1235.02 163.847ZM1398.34 136.172L1396.98 136.183L1396.99 137.43L1398.23 137.532L1398.34 136.172ZM1398.25 124.88L1398.24 123.514L1396.88 123.525L1396.89 124.891L1398.25 124.88ZM1573.64 142.694L1572.72 143.698L1572.72 143.703L1572.73 143.708L1573.64 142.694ZM1581.96 239.66L1580.91 238.792L1580.91 238.792L1581.96 239.66ZM1545.75 261.703L1545.39 260.387L1545.53 263.051L1545.75 261.703ZM1591.52 283.498L1592.5 282.549L1592.5 282.549L1591.52 283.498ZM1587.35 388.094L1586.41 387.097L1586.4 387.107L1587.35 388.094ZM1400.56 409.269L1399.2 409.28L1399.21 410.645L1400.57 410.634L1400.56 409.269ZM1400.47 398.395L1400.32 397.039L1399.1 397.181L1399.11 398.406L1400.47 398.395ZM1423.46 395.699L1423.62 397.055L1423.63 397.054L1423.64 397.052L1423.46 395.699ZM1431.37 392.289L1432.6 392.889L1432.6 392.889L1431.37 392.289ZM1429.34 141.357L1430.55 140.736L1430.55 140.736L1429.34 141.357ZM1421.36 138.076L1421.52 136.719L1421.5 136.717L1421.48 136.715L1421.36 138.076ZM1466.95 137.706L1466.94 136.34L1465.57 136.351L1465.58 137.717L1466.95 137.706ZM1467.92 257.316L1466.56 257.327L1466.57 258.693L1467.93 258.682L1467.92 257.316ZM1468.03 270.699L1468.02 269.334L1466.65 269.345L1466.66 270.71L1468.03 270.699ZM1469.04 395.329L1467.68 395.34L1467.69 396.705L1469.05 396.694L1469.04 395.329ZM1557.64 283.774L1556.59 284.647L1556.6 284.656L1556.61 284.666L1557.64 283.774ZM1399.71 136.16L1399.62 124.869L1396.89 124.891L1396.98 136.183L1399.71 136.16ZM1398.26 126.245L1512.02 125.321L1512 122.59L1398.24 123.514L1398.26 126.245ZM1512.02 125.321C1539.15 125.101 1559.3 131.307 1572.72 143.698L1574.57 141.691C1560.45 128.653 1539.51 122.367 1512 122.59L1512.02 125.321ZM1572.73 143.708C1586.19 155.868 1593.01 171.61 1593.16 191.053L1595.9 191.03C1595.73 170.881 1588.63 154.392 1574.56 141.681L1572.73 143.708ZM1593.16 191.053L1593.26 202.344L1595.99 202.322L1595.9 191.03L1593.16 191.053ZM1593.26 202.344C1593.37 216.549 1589.24 228.673 1580.91 238.792L1583.01 240.529C1591.79 229.875 1596.11 217.115 1595.99 202.322L1593.26 202.344ZM1580.91 238.792C1572.56 248.921 1560.75 256.137 1545.39 260.387L1546.11 263.019C1561.91 258.651 1574.24 251.172 1583.01 240.529L1580.91 238.792ZM1545.53 263.051C1564.86 266.203 1579.82 273.365 1590.53 284.448L1592.5 282.549C1581.28 270.946 1565.73 263.578 1545.97 260.355L1545.53 263.051ZM1590.53 284.448C1601.23 295.514 1606.67 309.481 1606.81 326.454L1609.54 326.431C1609.4 308.831 1603.73 294.169 1592.5 282.549L1590.53 284.448ZM1606.81 326.454L1606.9 337.746L1609.63 337.723L1609.54 326.431L1606.81 326.454ZM1606.9 337.746C1607.07 357.74 1600.23 374.154 1586.41 387.097L1588.28 389.091C1602.69 375.595 1609.8 358.436 1609.63 337.723L1606.9 337.746ZM1586.4 387.107C1572.92 399.994 1552.45 406.669 1524.76 406.894L1524.78 409.625C1552.86 409.397 1574.11 402.629 1588.29 389.081L1586.4 387.107ZM1524.76 406.894L1400.55 407.903L1400.57 410.634L1524.78 409.625L1524.76 406.894ZM1401.93 409.258L1401.84 398.384L1399.11 398.406L1399.2 409.28L1401.93 409.258ZM1400.63 399.751L1423.62 397.055L1423.3 394.343L1400.32 397.039L1400.63 399.751ZM1423.64 397.052C1425.93 396.747 1427.84 396.293 1429.32 395.655C1430.78 395.024 1431.99 394.144 1432.6 392.889L1430.15 391.688C1429.94 392.113 1429.41 392.641 1428.24 393.147C1427.08 393.646 1425.44 394.057 1423.28 394.345L1423.64 397.052ZM1432.6 392.889C1432.9 392.28 1433.1 391.442 1433.26 390.489C1433.41 389.505 1433.54 388.281 1433.63 386.828C1433.82 383.92 1433.9 380.013 1433.86 375.12L1431.12 375.142C1431.16 380.008 1431.09 383.84 1430.91 386.651C1430.82 388.057 1430.7 389.188 1430.56 390.054C1430.41 390.951 1430.26 391.457 1430.15 391.688L1432.6 392.889ZM1433.86 375.12L1432.1 158.483L1429.37 158.505L1431.12 375.142L1433.86 375.12ZM1432.1 158.483C1432.06 153.59 1431.92 149.684 1431.68 146.78C1431.57 145.329 1431.42 144.107 1431.25 143.126C1431.08 142.176 1430.86 141.341 1430.55 140.736L1428.12 141.978C1428.24 142.206 1428.4 142.71 1428.56 143.605C1428.71 144.468 1428.85 145.597 1428.96 147.001C1429.19 149.809 1429.33 153.639 1429.37 158.505L1432.1 158.483ZM1430.55 140.736C1429.92 139.492 1428.7 138.632 1427.23 138.024C1425.74 137.411 1423.82 136.987 1421.52 136.719L1421.21 139.432C1423.38 139.686 1425.02 140.07 1426.19 140.55C1427.37 141.037 1427.91 141.556 1428.12 141.978L1430.55 140.736ZM1421.48 136.715L1398.46 134.811L1398.23 137.532L1421.25 139.437L1421.48 136.715ZM1512.11 135.973L1466.94 136.34L1466.96 139.071L1512.13 138.704L1512.11 135.973ZM1465.58 137.717L1466.56 257.327L1469.29 257.305L1468.32 137.694L1465.58 137.717ZM1467.93 258.682L1513.1 258.315L1513.08 255.584L1467.91 255.951L1467.93 258.682ZM1513.1 258.315C1527.87 258.195 1539.14 253.798 1546.65 244.915C1554.13 236.072 1557.68 223.013 1557.54 205.981L1554.81 206.003C1554.94 222.707 1551.45 235.009 1544.56 243.152C1537.71 251.254 1527.31 255.468 1513.08 255.584L1513.1 258.315ZM1557.54 205.981L1557.4 188.834L1554.67 188.856L1554.81 206.003L1557.54 205.981ZM1557.4 188.834C1557.26 171.39 1553.5 158.082 1545.88 149.153C1538.23 140.178 1526.88 135.853 1512.11 135.973L1512.13 138.704C1526.35 138.589 1536.82 142.731 1543.8 150.925C1550.83 159.164 1554.53 171.727 1554.67 188.856L1557.4 188.834ZM1523.64 268.882L1468.02 269.334L1468.04 272.065L1523.66 271.613L1523.64 268.882ZM1466.66 270.71L1467.68 395.34L1470.41 395.317L1469.4 270.688L1466.66 270.71ZM1469.05 396.694L1524.68 396.242L1524.65 393.511L1469.03 393.963L1469.05 396.694ZM1524.68 396.242C1540.15 396.117 1551.94 391.432 1559.8 381.984C1567.61 372.581 1571.33 358.688 1571.18 340.545L1568.45 340.567C1568.59 358.391 1564.93 371.535 1557.69 380.239C1550.5 388.898 1539.57 393.39 1524.65 393.511L1524.68 396.242ZM1571.18 340.545L1571.04 323.398L1568.31 323.42L1568.45 340.567L1571.18 340.545ZM1571.04 323.398C1570.9 305.926 1566.84 292.351 1558.67 282.882L1556.61 284.666C1564.2 293.471 1568.17 306.32 1568.31 323.42L1571.04 323.398ZM1558.69 282.9C1550.76 273.365 1538.99 268.757 1523.64 268.882L1523.66 271.613C1538.43 271.493 1549.32 275.903 1556.59 284.647L1558.69 282.9ZM211.175 485.143L210.212 486.111L210.218 486.117L211.175 485.143ZM211.42 515.308L210.447 514.35L210.441 514.355L211.42 515.308ZM176.223 520.194L176.212 518.829L174.846 518.84L174.857 520.205L176.223 520.194ZM176.178 514.705L174.813 514.716L174.824 516.082L176.189 516.071L176.178 514.705ZM207.286 489.096L206.32 490.061L206.329 490.07L206.337 490.078L207.286 489.096ZM175.948 486.318L175.936 484.953L174.571 484.964L174.582 486.329L175.948 486.318ZM173.721 546.871C173.008 546.877 172.722 546.702 172.606 546.588C172.49 546.473 172.31 546.191 172.304 545.478L169.573 545.5C169.582 546.634 169.876 547.733 170.69 548.534C171.505 549.336 172.609 549.612 173.743 549.602L173.721 546.871ZM172.304 545.478L171.802 483.633L169.071 483.656L169.573 545.5L172.304 545.478ZM171.802 483.633C171.796 482.92 171.971 482.635 172.086 482.519C172.2 482.402 172.483 482.223 173.196 482.217L173.173 479.486C172.039 479.495 170.94 479.788 170.139 480.603C169.337 481.418 169.062 482.522 169.071 483.656L171.802 483.633ZM173.196 482.217L197.661 482.018L197.639 479.287L173.173 479.486L173.196 482.217ZM197.661 482.018C203.399 481.972 207.5 483.412 210.212 486.111L212.139 484.176C208.737 480.79 203.821 479.237 197.639 479.287L197.661 482.018ZM210.218 486.117C212.967 488.822 214.474 492.921 214.52 498.657L217.251 498.635C217.201 492.452 215.567 487.549 212.133 484.17L210.218 486.117ZM214.52 498.657L214.546 501.794L217.277 501.772L217.251 498.635L214.52 498.657ZM214.546 501.794C214.592 507.492 213.153 511.599 210.447 514.35L212.394 516.265C215.771 512.832 217.327 507.923 217.277 501.772L214.546 501.794ZM210.441 514.355C207.773 517.098 203.696 518.605 197.959 518.652L197.981 521.383C204.163 521.333 209.053 519.7 212.399 516.26L210.441 514.355ZM197.959 518.652L176.212 518.829L176.234 521.56L197.981 521.383L197.959 518.652ZM174.857 520.205L175.062 545.455L177.793 545.433L177.588 520.183L174.857 520.205ZM175.062 545.455C175.068 546.175 174.894 546.464 174.783 546.579C174.676 546.69 174.41 546.866 173.721 546.871L173.743 549.602C174.866 549.593 175.956 549.296 176.748 548.476C177.535 547.661 177.802 546.561 177.793 545.433L175.062 545.455ZM176.189 516.071L197.937 515.894L197.914 513.163L176.167 513.339L176.189 516.071ZM197.937 515.894C202.492 515.857 206.106 514.803 208.442 512.429L206.495 510.513C204.89 512.144 202.142 513.128 197.914 513.163L197.937 515.894ZM208.442 512.429C210.808 510.023 211.825 506.38 211.788 501.816L209.057 501.838C209.091 506.057 208.138 508.843 206.495 510.513L208.442 512.429ZM211.788 501.816L211.762 498.679L209.031 498.702L209.057 501.838L211.788 501.816ZM211.762 498.679C211.725 494.088 210.652 490.451 208.236 488.114L206.337 490.078C207.996 491.681 208.996 494.441 209.031 498.702L211.762 498.679ZM208.253 488.131C205.879 485.754 202.245 484.739 197.684 484.776L197.706 487.507C201.928 487.473 204.688 488.427 206.32 490.061L208.253 488.131ZM197.684 484.776L175.936 484.953L175.959 487.684L197.706 487.507L197.684 484.776ZM174.582 486.329L174.813 514.716L177.544 514.694L177.313 486.307L174.582 486.329ZM303.009 546.926L302.472 548.181L302.488 548.188L302.504 548.194L303.009 546.926ZM301.464 543.278L300.201 542.757L300.194 542.776L300.186 542.795L301.464 543.278ZM326.895 481.746L328.157 482.268L328.164 482.25L328.171 482.233L326.895 481.746ZM330.276 479.575L330.298 478.21L330.281 478.21L330.265 478.21L330.276 479.575ZM333.325 481.694L334.579 481.152L334.578 481.15L333.325 481.694ZM359.753 542.805L361.013 542.279L361.01 542.271L361.006 542.263L359.753 542.805ZM358.319 546.476L358.845 547.736L358.861 547.73L358.876 547.723L358.319 546.476ZM354.752 545.041L356.018 544.529L356.012 544.514L356.006 544.5L354.752 545.041ZM347.665 528.63L348.919 528.089L348.56 527.258L347.654 527.265L347.665 528.63ZM313.424 528.909L313.413 527.543L312.507 527.55L312.161 528.388L313.424 528.909ZM306.605 545.432L305.342 544.912L305.34 544.917L306.605 545.432ZM315.627 523.401L314.365 522.879L313.576 524.783L315.638 524.767L315.627 523.401ZM345.321 523.16L345.332 524.526L347.394 524.509L346.574 522.617L345.321 523.16ZM330.189 488.255L331.442 487.712L330.161 484.756L328.928 487.732L330.189 488.255ZM303.546 545.67C302.906 545.396 302.695 545.118 302.621 544.942C302.546 544.766 302.492 544.418 302.741 543.762L300.186 542.795C299.787 543.852 299.666 544.969 300.106 546.008C300.547 547.048 301.434 547.737 302.472 548.181L303.546 545.67ZM302.726 543.8L328.157 482.268L325.633 481.225L300.201 542.757L302.726 543.8ZM328.171 482.233C328.37 481.712 328.615 481.417 328.86 481.244C329.102 481.073 329.446 480.948 329.973 480.944L329.951 478.212C328.979 478.22 328.063 478.462 327.283 479.014C326.505 479.564 325.967 480.348 325.619 481.26L328.171 482.233ZM329.973 480.944L330.287 480.941L330.265 478.21L329.951 478.212L329.973 480.944ZM330.253 480.941C330.74 480.949 331.078 481.068 331.331 481.244C331.589 481.423 331.849 481.724 332.073 482.239L334.578 481.15C334.197 480.275 333.648 479.528 332.889 479.001C332.125 478.47 331.24 478.225 330.298 478.21L330.253 480.941ZM332.072 482.236L358.499 543.347L361.006 542.263L334.579 481.152L332.072 482.236ZM358.493 543.331C358.767 543.989 358.721 544.334 358.655 544.503C358.591 544.668 358.397 544.945 357.761 545.23L358.876 547.723C359.908 547.262 360.786 546.554 361.199 545.496C361.612 544.441 361.449 543.323 361.013 542.279L358.493 543.331ZM357.792 545.216C357.127 545.494 356.8 545.44 356.66 545.384C356.529 545.331 356.274 545.16 356.018 544.529L353.486 545.554C353.906 546.59 354.583 547.492 355.641 547.918C356.69 548.34 357.809 548.169 358.845 547.736L357.792 545.216ZM356.006 544.5L348.919 528.089L346.412 529.172L353.498 545.583L356.006 544.5ZM347.654 527.265L313.413 527.543L313.435 530.274L347.676 529.996L347.654 527.265ZM312.161 528.388L305.342 544.912L307.867 545.953L314.686 529.43L312.161 528.388ZM305.34 544.917C305.08 545.555 304.817 545.742 304.669 545.803C304.516 545.867 304.181 545.923 303.515 545.657L302.504 548.194C303.551 548.612 304.671 548.76 305.717 548.326C306.768 547.889 307.446 546.988 307.869 545.947L305.34 544.917ZM315.638 524.767L345.332 524.526L345.31 521.795L315.616 522.036L315.638 524.767ZM346.574 522.617L331.442 487.712L328.936 488.798L344.068 523.703L346.574 522.617ZM328.928 487.732L314.365 522.879L316.889 523.924L331.451 488.777L328.928 487.732ZM469.111 545.158L468.153 546.132L468.17 546.148L468.187 546.164L469.111 545.158ZM467.881 483.895L469.247 483.884L469.236 482.518L467.87 482.53L467.881 483.895ZM443.619 483.36L442.661 484.334L442.678 484.35L442.695 484.366L443.619 483.36ZM443.586 479.387L442.613 478.429L442.613 478.429L443.586 479.387ZM497.589 478.949L496.598 479.888L496.614 479.905L496.631 479.922L497.589 478.949ZM497.621 482.922L498.595 483.879L498.595 483.879L497.621 482.922ZM473.37 483.85L473.359 482.485L471.994 482.496L472.005 483.862L473.37 483.85ZM473.084 545.126L474.057 546.084L474.057 546.084L473.084 545.126ZM471.144 544.508C470.591 544.513 470.264 544.363 470.034 544.152L468.187 546.164C469.011 546.921 470.047 547.248 471.167 547.239L471.144 544.508ZM470.069 544.185C469.888 544.007 469.733 543.723 469.728 543.167L466.997 543.189C467.006 544.305 467.35 545.341 468.153 546.132L470.069 544.185ZM469.728 543.167L469.247 483.884L466.516 483.906L466.997 543.189L469.728 543.167ZM467.87 482.53L445.652 482.71L445.674 485.441L467.892 485.261L467.87 482.53ZM445.652 482.71C445.099 482.714 444.772 482.565 444.542 482.354L442.695 484.366C443.519 485.123 444.555 485.45 445.674 485.441L445.652 482.71ZM444.576 482.387C444.396 482.209 444.241 481.925 444.236 481.369L441.505 481.391C441.514 482.507 441.858 483.543 442.661 484.334L444.576 482.387ZM444.236 481.369C444.232 480.812 444.382 480.525 444.56 480.345L442.613 478.429C441.823 479.233 441.496 480.274 441.505 481.391L444.236 481.369ZM444.56 480.345C444.79 480.111 445.104 479.956 445.63 479.952L445.608 477.221C444.461 477.23 443.42 477.609 442.613 478.429L444.56 480.345ZM445.63 479.952L495.607 479.546L495.585 476.815L445.608 477.221L445.63 479.952ZM495.607 479.546C496.135 479.542 496.411 479.691 496.598 479.888L498.58 478.009C497.782 477.168 496.73 476.806 495.585 476.815L495.607 479.546ZM496.631 479.922C496.812 480.1 496.967 480.384 496.971 480.94L499.702 480.918C499.693 479.801 499.35 478.765 498.547 477.975L496.631 479.922ZM496.971 480.94C496.976 481.496 496.825 481.783 496.648 481.964L498.595 483.879C499.385 483.076 499.712 482.035 499.702 480.918L496.971 480.94ZM496.648 481.964C496.47 482.144 496.186 482.3 495.629 482.304L495.652 485.035C496.768 485.026 497.804 484.682 498.595 483.879L496.648 481.964ZM495.629 482.304L473.359 482.485L473.382 485.216L495.652 485.035L495.629 482.304ZM472.005 483.862L472.486 543.144L475.217 543.122L474.736 483.839L472.005 483.862ZM472.486 543.144C472.49 543.617 472.352 543.922 472.11 544.168L474.057 546.084C474.852 545.275 475.227 544.252 475.217 543.122L472.486 543.144ZM472.11 544.168C471.922 544.36 471.647 544.504 471.144 544.508L471.167 547.239C472.267 547.23 473.278 546.876 474.057 546.084L472.11 544.168ZM616.249 543.911L615.258 544.851L615.291 544.885L615.326 544.917L616.249 543.911ZM615.714 478.041L616.688 478.999L616.688 478.999L615.714 478.041ZM619.74 478.009L618.749 478.949L618.765 478.966L618.782 478.982L619.74 478.009ZM620.713 507.696L619.347 507.707L619.358 509.073L620.724 509.062L620.713 507.696ZM664.573 507.34L664.584 508.706L665.95 508.695L665.939 507.329L664.573 507.34ZM665.064 477.641L666.037 478.598L666.054 478.582L666.07 478.564L665.064 477.641ZM669.037 477.608L668.046 478.548L668.079 478.582L668.114 478.614L669.037 477.608ZM669.572 543.478L670.546 544.436L670.546 544.436L669.572 543.478ZM665.599 543.51L664.608 544.45L664.625 544.467L664.641 544.484L665.599 543.51ZM664.618 512.829L665.983 512.818L665.972 511.453L664.607 511.464L664.618 512.829ZM620.757 513.185L620.746 511.82L619.381 511.831L619.392 513.197L620.757 513.185ZM620.275 543.878L621.248 544.836L621.264 544.819L621.28 544.802L620.275 543.878ZM618.283 543.261C617.73 543.265 617.402 543.116 617.173 542.905L615.326 544.917C616.15 545.674 617.185 546.001 618.305 545.992L618.283 543.261ZM617.24 542.971C617.026 542.745 616.871 542.42 616.866 541.867L614.135 541.889C614.144 543.009 614.488 544.039 615.258 544.851L617.24 542.971ZM616.866 541.867L616.364 480.023L613.633 480.045L614.135 541.889L616.866 541.867ZM616.364 480.023C616.359 479.467 616.51 479.18 616.688 478.999L614.741 477.084C613.951 477.887 613.624 478.928 613.633 480.045L616.364 480.023ZM616.688 478.999C616.918 478.765 617.232 478.611 617.758 478.606L617.736 475.875C616.589 475.884 615.547 476.264 614.741 477.084L616.688 478.999ZM617.758 478.606C618.286 478.602 618.562 478.751 618.749 478.949L620.73 477.069C619.933 476.228 618.88 475.866 617.736 475.875L617.758 478.606ZM618.782 478.982C618.962 479.16 619.118 479.444 619.122 480L621.853 479.978C621.844 478.862 621.5 477.826 620.697 477.035L618.782 478.982ZM619.122 480L619.347 507.707L622.078 507.685L621.853 479.978L619.122 480ZM620.724 509.062L664.584 508.706L664.562 505.975L620.701 506.331L620.724 509.062ZM665.939 507.329L665.714 479.622L662.983 479.644L663.208 507.351L665.939 507.329ZM665.714 479.622C665.709 479.066 665.86 478.779 666.037 478.598L664.091 476.683C663.3 477.486 662.974 478.528 662.983 479.644L665.714 479.622ZM666.07 478.564C666.254 478.364 666.527 478.21 667.055 478.206L667.033 475.475C665.888 475.484 664.842 475.864 664.058 476.717L666.07 478.564ZM667.055 478.206C667.583 478.202 667.859 478.351 668.046 478.548L670.028 476.669C669.231 475.828 668.178 475.465 667.033 475.475L667.055 478.206ZM668.114 478.614C668.314 478.798 668.468 479.072 668.472 479.6L671.203 479.577C671.194 478.433 670.814 477.386 669.961 476.602L668.114 478.614ZM668.472 479.6L668.974 541.444L671.705 541.422L671.203 479.577L668.472 479.6ZM668.974 541.444C668.978 541.97 668.829 542.286 668.599 542.52L670.546 544.436C671.352 543.616 671.715 542.568 671.705 541.422L668.974 541.444ZM668.599 542.52C668.421 542.701 668.137 542.856 667.58 542.86L667.603 545.591C668.719 545.582 669.755 545.239 670.546 544.436L668.599 542.52ZM667.58 542.86C667.024 542.865 666.737 542.714 666.557 542.537L664.641 544.484C665.444 545.274 666.486 545.6 667.603 545.591L667.58 542.86ZM666.59 542.57C666.375 542.344 666.221 542.019 666.216 541.466L663.485 541.488C663.494 542.608 663.838 543.638 664.608 544.45L666.59 542.57ZM666.216 541.466L665.983 512.818L663.252 512.84L663.485 541.488L666.216 541.466ZM664.607 511.464L620.746 511.82L620.768 514.551L664.629 514.195L664.607 511.464ZM619.392 513.197L619.624 541.845L622.355 541.822L622.123 513.174L619.392 513.197ZM619.624 541.845C619.629 542.398 619.479 542.725 619.269 542.955L621.28 544.802C622.037 543.978 622.364 542.942 622.355 541.822L619.624 541.845ZM619.301 542.921C619.123 543.101 618.839 543.256 618.283 543.261L618.305 545.992C619.422 545.983 620.458 545.639 621.248 544.836L619.301 542.921ZM798.694 537.933L799.652 536.96L799.652 536.96L798.694 537.933ZM798.231 480.898L799.2 481.861L799.204 481.856L798.231 480.898ZM814.657 475.641L814.655 477.007L814.668 477.007L814.657 475.641ZM843.87 480.632L842.907 481.601L842.912 481.606L843.87 480.632ZM844.332 537.562L843.359 536.605L843.354 536.61L844.332 537.562ZM837.365 535.789L836.803 534.544L836.803 534.544L837.365 535.789ZM842.446 530.624L843.7 531.165L843.7 531.165L842.446 530.624ZM842.097 487.652L843.342 487.091L843.342 487.091L842.097 487.652ZM836.932 482.571L836.376 483.818L836.384 483.821L836.391 483.825L836.932 482.571ZM814.701 481.131L814.701 482.496L814.712 482.496L814.701 481.131ZM805.147 482.724L805.7 483.973L805.708 483.969L805.147 482.724ZM800.118 487.889L801.371 488.43L801.374 488.423L800.118 487.889ZM800.467 530.965L799.223 531.527L799.223 531.527L800.467 530.965ZM805.632 536.047L805.091 537.301L805.091 537.301L805.632 536.047ZM815.298 541.661C807.907 541.721 802.798 540.055 799.652 536.96L797.736 538.906C801.617 542.725 807.584 544.455 815.32 544.392L815.298 541.661ZM799.652 536.96C796.506 533.864 794.757 528.783 794.697 521.392L791.966 521.415C792.029 529.15 793.855 535.088 797.736 538.906L799.652 536.96ZM794.697 521.392L794.504 497.554L791.773 497.576L791.966 521.415L794.697 521.392ZM794.504 497.554C794.443 490.088 796.112 484.968 799.2 481.861L797.262 479.936C793.436 483.786 791.709 489.777 791.773 497.576L794.504 497.554ZM799.204 481.856C802.297 478.713 807.34 476.998 814.655 477.007L814.658 474.276C806.986 474.267 801.079 476.057 797.258 479.941L799.204 481.856ZM814.668 477.007L827.319 476.904L827.297 474.173L814.646 474.276L814.668 477.007ZM827.319 476.904C834.711 476.844 839.798 478.511 842.907 481.601L844.833 479.664C840.985 475.839 835.031 474.11 827.297 474.173L827.319 476.904ZM842.912 481.606C846.058 484.701 847.807 489.783 847.867 497.173L850.598 497.151C850.535 489.415 848.709 483.477 844.828 479.659L842.912 481.606ZM847.867 497.173L848.06 520.959L850.791 520.937L850.598 497.151L847.867 497.173ZM848.06 520.959C848.12 528.349 846.454 533.459 843.359 536.605L845.306 538.52C849.124 534.639 850.854 528.672 850.791 520.937L848.06 520.959ZM843.354 536.61C840.296 539.75 835.236 541.499 827.844 541.559L827.866 544.29C835.6 544.227 841.525 542.401 845.311 538.515L843.354 536.61ZM827.844 541.559L815.298 541.661L815.32 544.392L827.866 544.29L827.844 541.559ZM815.275 538.903L827.822 538.801L827.8 536.07L815.253 536.172L815.275 538.903ZM827.822 538.801C831.926 538.767 835.323 538.208 837.926 537.034L836.803 534.544C834.683 535.5 831.711 536.038 827.8 536.07L827.822 538.801ZM837.926 537.034C840.598 535.829 842.539 533.857 843.7 531.165L841.192 530.083C840.301 532.149 838.854 533.619 836.803 534.544L837.926 537.034ZM843.7 531.165C844.832 528.543 845.336 525.119 845.302 520.981L842.571 521.004C842.603 524.952 842.113 527.949 841.192 530.083L843.7 531.165ZM845.302 520.981L845.109 497.195L842.378 497.217L842.571 521.004L845.302 520.981ZM845.109 497.195C845.075 493.091 844.516 489.694 843.342 487.091L840.852 488.214C841.808 490.334 842.346 493.306 842.378 497.217L845.109 497.195ZM843.342 487.091C842.137 484.419 840.165 482.478 837.473 481.317L836.391 483.825C838.457 484.716 839.928 486.163 840.852 488.214L843.342 487.091ZM837.489 481.324C834.862 480.152 831.45 479.629 827.341 479.662L827.364 482.393C831.271 482.362 834.246 482.868 836.376 483.818L837.489 481.324ZM827.341 479.662L814.69 479.765L814.712 482.496L827.364 482.393L827.341 479.662ZM814.702 479.765C810.595 479.763 807.194 480.303 804.586 481.479L805.708 483.969C807.823 483.016 810.791 482.494 814.701 482.496L814.702 479.765ZM804.594 481.476C801.94 482.65 800.018 484.633 798.861 487.354L801.374 488.423C802.269 486.318 803.7 484.858 805.7 483.973L804.594 481.476ZM798.864 487.348C797.732 489.97 797.228 493.394 797.262 497.532L799.993 497.509C799.961 493.561 800.451 490.564 801.371 488.43L798.864 487.348ZM797.262 497.532L797.455 521.37L800.187 521.348L799.993 497.509L797.262 497.532ZM797.455 521.37C797.489 525.507 798.048 528.922 799.223 531.527L801.712 530.404C800.757 528.285 800.219 525.296 800.187 521.348L797.455 521.37ZM799.223 531.527C800.427 534.199 802.4 536.139 805.091 537.301L806.173 534.793C804.108 533.902 802.637 532.455 801.712 530.404L799.223 531.527ZM805.091 537.301C807.714 538.432 811.138 538.936 815.275 538.903L815.253 536.172C811.305 536.204 808.307 535.714 806.173 534.793L805.091 537.301ZM978.129 536.214L976.763 536.225L976.774 537.591L978.14 537.58L978.129 536.214ZM975.444 540.36C974.731 540.366 974.445 540.191 974.329 540.076C974.213 539.962 974.033 539.679 974.027 538.966L971.296 538.988C971.305 540.122 971.599 541.221 972.413 542.023C973.228 542.825 974.332 543.1 975.466 543.091L975.444 540.36ZM974.027 538.966L973.525 477.122L970.794 477.144L971.296 538.988L974.027 538.966ZM973.525 477.122C973.519 476.409 973.694 476.124 973.808 476.007C973.923 475.891 974.205 475.711 974.919 475.705L974.896 472.974C973.762 472.984 972.663 473.277 971.862 474.092C971.06 474.907 970.785 476.01 970.794 477.144L973.525 477.122ZM974.919 475.705C975.608 475.7 975.876 475.871 975.985 475.98C976.098 476.094 976.277 476.38 976.283 477.1L979.014 477.077C979.005 475.95 978.719 474.854 977.919 474.052C977.114 473.244 976.02 472.965 974.896 472.974L974.919 475.705ZM976.283 477.1L976.763 536.225L979.494 536.203L979.014 477.077L976.283 477.1ZM978.14 537.58L1009.92 537.322L1009.9 534.591L978.118 534.849L978.14 537.58ZM1009.92 537.322C1010.64 537.316 1010.93 537.49 1011.05 537.601C1011.16 537.708 1011.33 537.974 1011.34 538.663L1014.07 538.641C1014.06 537.518 1013.77 536.428 1012.95 535.636C1012.13 534.849 1011.03 534.581 1009.9 534.591L1009.92 537.322ZM1011.34 538.663C1011.35 539.376 1011.17 539.662 1011.06 539.778C1010.94 539.894 1010.66 540.074 1009.95 540.08L1009.97 542.811C1011.1 542.802 1012.2 542.508 1013 541.693C1013.81 540.879 1014.08 539.775 1014.07 538.641L1011.34 538.663ZM1009.95 540.08L975.444 540.36L975.466 543.091L1009.97 542.811L1009.95 540.08ZM1133.7 535.212L1134.66 534.239L1134.66 534.239L1133.7 535.212ZM1133.24 478.178L1134.2 479.14L1134.21 479.135L1133.24 478.178ZM1149.66 472.921L1149.66 474.286L1149.67 474.286L1149.66 472.921ZM1178.87 477.911L1177.91 478.88L1177.92 478.885L1178.87 477.911ZM1179.34 534.842L1178.36 533.884L1178.36 533.889L1179.34 534.842ZM1172.37 533.068L1171.81 531.823L1171.81 531.823L1172.37 533.068ZM1177.45 527.904L1178.7 528.445L1178.7 528.445L1177.45 527.904ZM1177.1 484.931L1178.35 484.37L1178.35 484.37L1177.1 484.931ZM1171.94 479.85L1171.38 481.097L1171.39 481.1L1171.4 481.104L1171.94 479.85ZM1149.71 478.41L1149.7 479.775L1149.72 479.775L1149.71 478.41ZM1140.15 480.004L1140.7 481.252L1140.71 481.248L1140.15 480.004ZM1135.12 485.168L1136.38 485.709L1136.38 485.702L1135.12 485.168ZM1135.47 528.244L1134.23 528.806L1134.23 528.806L1135.47 528.244ZM1140.64 533.326L1140.1 534.58L1140.1 534.58L1140.64 533.326ZM1150.3 538.94C1142.91 539 1137.8 537.334 1134.66 534.239L1132.74 536.186C1136.62 540.004 1142.59 541.734 1150.32 541.671L1150.3 538.94ZM1134.66 534.239C1131.51 531.144 1129.76 526.062 1129.7 518.672L1126.97 518.694C1127.03 526.429 1128.86 532.367 1132.74 536.186L1134.66 534.239ZM1129.7 518.672L1129.51 494.833L1126.78 494.855L1126.97 518.694L1129.7 518.672ZM1129.51 494.833C1129.45 487.367 1131.12 482.247 1134.2 479.14L1132.27 477.215C1128.44 481.065 1126.71 487.056 1126.78 494.855L1129.51 494.833ZM1134.21 479.135C1137.3 475.992 1142.34 474.278 1149.66 474.286L1149.66 471.555C1141.99 471.546 1136.08 473.336 1132.26 477.22L1134.21 479.135ZM1149.67 474.286L1162.32 474.183L1162.3 471.452L1149.65 471.555L1149.67 474.286ZM1162.32 474.183C1169.71 474.123 1174.8 475.79 1177.91 478.88L1179.84 476.943C1175.99 473.119 1170.03 471.39 1162.3 471.452L1162.32 474.183ZM1177.92 478.885C1181.06 481.98 1182.81 487.062 1182.87 494.452L1185.6 494.43C1185.54 486.694 1183.71 480.757 1179.83 476.938L1177.92 478.885ZM1182.87 494.452L1183.06 518.238L1185.8 518.216L1185.6 494.43L1182.87 494.452ZM1183.06 518.238C1183.12 525.628 1181.46 530.738 1178.36 533.884L1180.31 535.799C1184.13 531.918 1185.86 525.952 1185.8 518.216L1183.06 518.238ZM1178.36 533.889C1175.3 537.029 1170.24 538.778 1162.85 538.838L1162.87 541.569C1170.6 541.506 1176.53 539.681 1180.31 535.794L1178.36 533.889ZM1162.85 538.838L1150.3 538.94L1150.32 541.671L1162.87 541.569L1162.85 538.838ZM1150.28 536.182L1162.83 536.08L1162.8 533.349L1150.26 533.451L1150.28 536.182ZM1162.83 536.08C1166.93 536.047 1170.33 535.487 1172.93 534.313L1171.81 531.823C1169.69 532.779 1166.72 533.317 1162.8 533.349L1162.83 536.08ZM1172.93 534.313C1175.6 533.108 1177.54 531.136 1178.7 528.445L1176.2 527.362C1175.31 529.428 1173.86 530.899 1171.81 531.823L1172.93 534.313ZM1178.7 528.445C1179.84 525.822 1180.34 522.398 1180.31 518.261L1177.58 518.283C1177.61 522.231 1177.12 525.229 1176.2 527.362L1178.7 528.445ZM1180.31 518.261L1180.11 494.474L1177.38 494.497L1177.58 518.283L1180.31 518.261ZM1180.11 494.474C1180.08 490.37 1179.52 486.973 1178.35 484.37L1175.86 485.493C1176.81 487.613 1177.35 490.585 1177.38 494.497L1180.11 494.474ZM1178.35 484.37C1177.14 481.698 1175.17 479.757 1172.48 478.596L1171.4 481.104C1173.46 481.995 1174.93 483.442 1175.86 485.493L1178.35 484.37ZM1172.49 478.603C1169.87 477.431 1166.45 476.908 1162.35 476.941L1162.37 479.673C1166.28 479.641 1169.25 480.147 1171.38 481.097L1172.49 478.603ZM1162.35 476.941L1149.69 477.044L1149.72 479.775L1162.37 479.673L1162.35 476.941ZM1149.71 477.044C1145.6 477.042 1142.2 477.583 1139.59 478.759L1140.71 481.248C1142.83 480.295 1145.8 479.773 1149.7 479.775L1149.71 477.044ZM1139.6 478.755C1136.94 479.929 1135.02 481.912 1133.87 484.634L1136.38 485.702C1137.27 483.597 1138.7 482.137 1140.7 481.252L1139.6 478.755ZM1133.87 484.627C1132.74 487.25 1132.23 490.673 1132.27 494.811L1135 494.789C1134.97 490.84 1135.45 487.843 1136.38 485.709L1133.87 484.627ZM1132.27 494.811L1132.46 518.649L1135.19 518.627L1135 494.789L1132.27 494.811ZM1132.46 518.649C1132.49 522.787 1133.05 526.202 1134.23 528.806L1136.72 527.683C1135.76 525.564 1135.22 522.575 1135.19 518.627L1132.46 518.649ZM1134.23 528.806C1135.43 531.478 1137.4 533.419 1140.1 534.58L1141.18 532.072C1139.11 531.181 1137.64 529.734 1136.72 527.683L1134.23 528.806ZM1140.1 534.58C1142.72 535.712 1146.14 536.215 1150.28 536.182L1150.26 533.451C1146.31 533.483 1143.31 532.993 1141.18 532.072L1140.1 534.58ZM1285.22 533.982L1286.18 533.008L1286.18 533.008L1285.22 533.982ZM1284.71 477L1283.74 476.037L1283.73 476.042L1284.71 477ZM1328.19 475.496L1327.31 476.541L1327.32 476.547L1328.19 475.496ZM1333.47 488.262L1332.11 488.346L1332.11 488.385L1332.12 488.424L1333.47 488.262ZM1332.91 490.41L1331.94 489.453L1331.92 489.471L1331.91 489.489L1332.91 490.41ZM1327.98 488.411L1326.62 488.499L1326.62 488.525L1326.62 488.551L1327.98 488.411ZM1324.36 479.501L1323.52 480.581L1323.53 480.589L1324.36 479.501ZM1291.67 478.825L1292.22 480.077L1292.23 480.074L1292.24 480.07L1291.67 478.825ZM1286.59 483.99L1285.34 483.456L1285.33 483.464L1286.59 483.99ZM1286.99 527.014L1285.75 527.575L1285.75 527.575L1286.99 527.014ZM1292.16 532.095L1291.62 533.349L1291.62 533.349L1292.16 532.095ZM1322.74 532.108L1322.21 530.852L1322.2 530.855L1322.74 532.108ZM1327.15 527.681L1325.89 527.158L1325.89 527.158L1327.15 527.681ZM1328.34 512.615L1329.7 512.603L1329.69 511.25L1328.34 511.249L1328.34 512.615ZM1316.89 512.603L1316.89 511.237L1316.88 511.237L1316.89 512.603ZM1316.84 507.114L1316.84 505.748L1316.83 505.748L1316.84 507.114ZM1331.06 507.103L1331.06 508.468L1331.07 508.468L1331.06 507.103ZM1329.35 534.198L1330.32 535.156L1330.33 535.151L1329.35 534.198ZM1301.82 537.709C1294.43 537.769 1289.32 536.103 1286.18 533.008L1284.26 534.955C1288.14 538.773 1294.11 540.503 1301.85 540.44L1301.82 537.709ZM1286.18 533.008C1283.03 529.913 1281.28 524.831 1281.22 517.441L1278.49 517.463C1278.56 525.199 1280.38 531.137 1284.26 534.955L1286.18 533.008ZM1281.22 517.441L1281.03 493.655L1278.3 493.677L1278.49 517.463L1281.22 517.441ZM1281.03 493.655C1280.97 486.186 1282.62 481.064 1285.68 477.957L1283.73 476.042C1279.94 479.892 1278.24 485.881 1278.3 493.677L1281.03 493.655ZM1285.67 477.962C1288.77 474.847 1293.84 473.115 1301.19 473.056L1301.17 470.324C1293.47 470.387 1287.56 472.195 1283.74 476.037L1285.67 477.962ZM1301.19 473.056L1313.85 472.953L1313.82 470.222L1301.17 470.324L1301.19 473.056ZM1313.85 472.953C1320.1 472.902 1324.51 474.182 1327.31 476.541L1329.07 474.451C1325.56 471.495 1320.39 470.168 1313.82 470.222L1313.85 472.953ZM1327.32 476.547C1330.08 478.84 1331.76 482.668 1332.11 488.346L1334.83 488.179C1334.46 482.082 1332.62 477.399 1329.06 474.446L1327.32 476.547ZM1332.12 488.424C1332.2 489.115 1332.03 489.356 1331.94 489.453L1333.89 491.368C1334.76 490.481 1334.97 489.29 1334.83 488.1L1332.12 488.424ZM1331.91 489.489C1331.79 489.61 1331.54 489.788 1330.87 489.793L1330.89 492.524C1332.04 492.515 1333.13 492.193 1333.92 491.331L1331.91 489.489ZM1330.87 489.793C1330.24 489.798 1329.94 489.638 1329.79 489.491C1329.62 489.333 1329.42 488.997 1329.34 488.272L1326.62 488.551C1326.74 489.671 1327.11 490.716 1327.91 491.473C1328.72 492.243 1329.78 492.533 1330.89 492.524L1330.87 489.793ZM1329.35 488.323C1329.06 483.846 1327.79 480.386 1325.18 478.412L1323.53 480.589C1325.2 481.857 1326.35 484.338 1326.62 488.499L1329.35 488.323ZM1325.19 478.421C1322.68 476.479 1318.8 475.671 1313.87 475.711L1313.89 478.442C1318.64 478.403 1321.75 479.212 1323.52 480.581L1325.19 478.421ZM1313.87 475.711L1301.22 475.814L1301.24 478.545L1313.89 478.442L1313.87 475.711ZM1301.22 475.814C1297.11 475.847 1293.72 476.407 1291.11 477.58L1292.24 480.07C1294.36 479.114 1297.33 478.576 1301.24 478.545L1301.22 475.814ZM1291.13 477.573C1288.44 478.746 1286.5 480.728 1285.34 483.456L1287.85 484.524C1288.74 482.426 1290.18 480.965 1292.22 480.077L1291.13 477.573ZM1285.33 483.464C1284.24 486.082 1283.76 489.499 1283.79 493.632L1286.52 493.61C1286.49 489.658 1286.96 486.655 1287.85 484.515L1285.33 483.464ZM1283.79 493.632L1283.98 517.419L1286.71 517.396L1286.52 493.61L1283.79 493.632ZM1283.98 517.419C1284.02 521.556 1284.58 524.971 1285.75 527.575L1288.24 526.452C1287.28 524.334 1286.75 521.345 1286.71 517.396L1283.98 517.419ZM1285.75 527.575C1286.95 530.247 1288.93 532.188 1291.62 533.349L1292.7 530.842C1290.63 529.95 1289.16 528.503 1288.24 526.452L1285.75 527.575ZM1291.62 533.349C1294.24 534.481 1297.66 534.985 1301.8 534.951L1301.78 532.22C1297.83 532.252 1294.83 531.762 1292.7 530.842L1291.62 533.349ZM1301.8 534.951L1314.35 534.849L1314.33 532.118L1301.78 532.22L1301.8 534.951ZM1314.35 534.849C1317.99 534.82 1321 534.352 1323.29 533.361L1322.2 530.855C1320.39 531.64 1317.79 532.09 1314.33 532.118L1314.35 534.849ZM1323.28 533.365C1325.69 532.338 1327.42 530.602 1328.41 528.204L1325.89 527.158C1325.17 528.886 1323.97 530.102 1322.21 530.852L1323.28 533.365ZM1328.41 528.204C1329.37 525.898 1329.78 522.846 1329.75 519.138L1327.02 519.16C1327.05 522.702 1326.64 525.337 1325.89 527.158L1328.41 528.204ZM1329.75 519.138L1329.7 512.603L1326.97 512.626L1327.02 519.16L1329.75 519.138ZM1328.34 511.249L1316.89 511.237L1316.89 513.969L1328.33 513.98L1328.34 511.249ZM1316.88 511.237C1316.19 511.243 1315.92 511.071 1315.81 510.963C1315.7 510.849 1315.52 510.563 1315.51 509.843L1312.78 509.865C1312.79 510.993 1313.07 512.089 1313.88 512.891C1314.68 513.698 1315.77 513.978 1316.9 513.968L1316.88 511.237ZM1315.51 509.843C1315.51 509.148 1315.68 508.875 1315.78 508.768C1315.89 508.66 1316.16 508.485 1316.85 508.479L1316.83 505.748C1315.71 505.757 1314.63 506.046 1313.84 506.852C1313.04 507.658 1312.77 508.749 1312.78 509.865L1315.51 509.843ZM1316.84 508.479L1331.06 508.468L1331.06 505.737L1316.84 505.748L1316.84 508.479ZM1331.07 508.468C1331.77 508.463 1332.04 508.634 1332.15 508.739C1332.26 508.845 1332.43 509.115 1332.44 509.81L1335.17 509.788C1335.16 508.672 1334.87 507.585 1334.06 506.793C1333.26 506 1332.17 505.728 1331.05 505.737L1331.07 508.468ZM1332.44 509.81L1332.51 519.116L1335.24 519.094L1335.17 509.788L1332.44 509.81ZM1332.51 519.116C1332.57 525.854 1331.08 530.455 1328.37 533.246L1330.33 535.151C1333.76 531.618 1335.3 526.157 1335.24 519.094L1332.51 519.116ZM1328.37 533.241C1325.66 535.995 1321.11 537.553 1314.37 537.607L1314.39 540.338C1321.45 540.281 1326.88 538.656 1330.32 535.156L1328.37 533.241ZM1314.37 537.607L1301.82 537.709L1301.85 540.44L1314.39 540.338L1314.37 537.607ZM1445.12 511.875L1446.49 511.864L1446.48 511.468L1446.27 511.136L1445.12 511.875ZM1421.4 475.053L1420.25 475.789L1420.25 475.793L1421.4 475.053ZM1422.26 471.23L1421.53 470.076L1421.5 470.091L1421.48 470.108L1422.26 471.23ZM1426.08 472.087L1424.93 472.818L1424.93 472.824L1426.08 472.087ZM1447.79 505.946L1446.64 506.683L1447.8 508.494L1448.95 506.672L1447.79 505.946ZM1469.31 471.684L1468.17 470.936L1468.16 470.946L1468.16 470.957L1469.31 471.684ZM1470.98 470.363L1470.67 469.033L1470.67 469.033L1470.98 470.363ZM1473.07 470.869L1472.35 472.027L1472.36 472.037L1472.38 472.046L1473.07 470.869ZM1473.94 474.626L1472.78 473.896L1472.78 473.901L1473.94 474.626ZM1450.61 511.831L1449.45 511.105L1449.24 511.443L1449.24 511.842L1450.61 511.831ZM1448.04 536.522C1447.35 536.527 1447.08 536.356 1446.97 536.247C1446.86 536.133 1446.68 535.847 1446.67 535.128L1443.94 535.15C1443.95 536.277 1444.24 537.373 1445.04 538.175C1445.84 538.983 1446.94 539.262 1448.06 539.253L1448.04 536.522ZM1446.67 535.128L1446.49 511.864L1443.75 511.886L1443.94 535.15L1446.67 535.128ZM1446.27 511.136L1422.55 474.313L1420.25 475.793L1443.97 512.615L1446.27 511.136ZM1422.55 474.317C1422.2 473.767 1422.19 473.448 1422.23 473.278C1422.27 473.092 1422.44 472.767 1423.04 472.351L1421.48 470.108C1420.55 470.75 1419.81 471.591 1419.57 472.68C1419.32 473.784 1419.65 474.848 1420.25 475.789L1422.55 474.317ZM1422.99 472.383C1423.59 472.001 1423.92 471.999 1424.08 472.035C1424.24 472.071 1424.55 472.216 1424.93 472.818L1427.23 471.356C1426.63 470.398 1425.8 469.62 1424.68 469.37C1423.57 469.12 1422.48 469.469 1421.53 470.076L1422.99 472.383ZM1424.93 472.824L1446.64 506.683L1448.94 505.209L1427.23 471.35L1424.93 472.824ZM1448.95 506.672L1470.47 472.41L1468.16 470.957L1446.63 505.219L1448.95 506.672ZM1470.46 472.432C1470.82 471.88 1471.11 471.734 1471.28 471.694L1470.67 469.033C1469.59 469.282 1468.77 470.016 1468.17 470.936L1470.46 472.432ZM1471.28 471.694C1471.43 471.66 1471.75 471.657 1472.35 472.027L1473.79 469.711C1472.85 469.118 1471.77 468.778 1470.67 469.033L1471.28 471.694ZM1472.38 472.046C1472.98 472.402 1473.11 472.682 1473.14 472.812C1473.17 472.948 1473.18 473.276 1472.78 473.896L1475.09 475.357C1475.7 474.4 1476.06 473.313 1475.8 472.198C1475.54 471.074 1474.74 470.265 1473.76 469.692L1472.38 472.046ZM1472.78 473.901L1449.45 511.105L1451.77 512.556L1475.09 475.352L1472.78 473.901ZM1449.24 511.842L1449.43 535.105L1452.16 535.083L1451.97 511.819L1449.24 511.842ZM1449.43 535.105C1449.44 535.818 1449.26 536.104 1449.15 536.22C1449.03 536.336 1448.75 536.516 1448.04 536.522L1448.06 539.253C1449.19 539.244 1450.29 538.95 1451.1 538.135C1451.9 537.321 1452.17 536.217 1452.16 535.083L1449.43 535.105Z" fill="black"/>
<path fill-rule="evenodd" clip-rule="evenodd" d="M475.15 247C428.675 247 391 281.631 391 324.35C391 367.069 428.675 401.7 475.15 401.7C494.82 401.7 512.914 395.497 527.242 385.102L572.1 426.335C575.966 429.888 582.235 429.888 586.101 426.335C589.966 422.781 589.966 417.019 586.101 413.466L541.243 372.233C552.551 359.062 559.3 342.431 559.3 324.35C559.3 281.631 521.625 247 475.15 247ZM410.8 324.35C410.8 291.682 439.61 265.2 475.15 265.2C510.69 265.2 539.5 291.682 539.5 324.35C539.5 357.018 510.69 383.5 475.15 383.5C439.61 383.5 410.8 357.018 410.8 324.35Z" fill="#960202"/>
</svg>
